<svg width="215" height="78" viewBox="0 0 215 78" fill="none" xmlns="http://www.w3.org/2000/svg">
<path d="M90.2329 34.5622H81.2734V55.1717H70.0394V0.000160217H90.2884C96.7237 0.000160217 101.689 1.44255 105.184 4.29961C108.679 7.18439 110.426 11.2342 110.426 16.4767C110.426 20.1937 109.622 23.3004 108.013 25.7691C106.404 28.2655 103.963 30.235 100.69 31.7051L112.479 53.979V55.144H100.746L90.2329 34.5622ZM81.3011 25.464H90.3716C93.2009 25.464 95.3645 24.7428 96.9178 23.3004C98.4712 21.858 99.2479 19.8886 99.2479 17.3644C99.2479 14.7847 98.5267 12.7598 97.0565 11.2897C95.5864 9.81954 93.3673 9.0706 90.3438 9.0706H81.3289V25.464H81.3011Z" fill="#0560FA"/>
<path d="M136.944 55.2551C131.008 55.2551 126.154 53.4244 122.437 49.7906C118.692 46.1569 116.834 41.3027 116.834 35.228V34.174C116.834 30.0964 117.611 26.4627 119.192 23.245C120.773 20.0274 122.992 17.5587 125.877 15.8389C128.761 14.0914 132.062 13.2315 135.752 13.2315C141.299 13.2315 145.654 14.979 148.844 18.474C152.034 21.9691 153.615 26.9342 153.615 33.3418V37.7522H127.818C128.179 40.3873 129.233 42.5232 130.981 44.1043C132.728 45.7131 134.975 46.4898 137.665 46.4898C141.826 46.4898 145.099 44.9919 147.429 41.9684L152.755 47.9322C151.119 50.2345 148.927 52.0097 146.153 53.3134C143.38 54.6171 140.301 55.2551 136.944 55.2551ZM135.696 21.9691C133.56 21.9691 131.813 22.6903 130.481 24.1604C129.15 25.6028 128.29 27.6832 127.929 30.4015H142.991V29.5416C142.936 27.1284 142.298 25.2699 141.05 23.9662C139.774 22.6348 137.998 21.9691 135.696 21.9691Z" fill="#0560FA"/>
<path d="M158.053 33.9519C158.053 27.6276 159.468 22.6069 162.297 18.8622C165.127 15.1176 169.01 13.2591 173.92 13.2591C177.858 13.2591 181.132 14.7292 183.683 17.6695V0.000160217H194.529V55.1717H184.738L184.238 50.2066C181.548 53.5629 178.08 55.255 173.836 55.255C169.065 55.255 165.237 53.3688 162.353 49.6241C159.496 45.8794 158.053 40.6646 158.053 33.9519ZM168.871 34.7563C168.871 38.5565 169.537 41.469 170.868 43.4939C172.2 45.5188 174.114 46.5451 176.638 46.5451C179.994 46.5451 182.352 45.1305 183.711 42.3012V26.2961C182.352 23.4668 180.022 22.0522 176.693 22.0522C171.479 22.0522 168.871 26.2961 168.871 34.7563Z" fill="#0560FA"/>
<path d="M202.878 5.57557C202.878 3.96675 203.433 2.60757 204.515 1.58125C205.597 0.527189 207.067 0.000160217 208.953 0.000160217C210.812 0.000160217 212.282 0.527189 213.363 1.58125C214.473 2.6353 215 3.96675 215 5.57557C215 7.21213 214.445 8.57131 213.336 9.62537C212.226 10.6794 210.756 11.2065 208.925 11.2065C207.095 11.2065 205.624 10.6794 204.515 9.62537C203.433 8.57131 202.878 7.23987 202.878 5.57557Z" fill="#EC8000"/>
<path d="M214.362 13.2592H203.516V55.1718H214.362V13.2592Z" fill="#0560FA"/>
<path d="M134.587 72.5361C133.422 72.5361 132.368 72.2587 131.424 71.6762C130.481 71.0937 129.76 70.2893 129.233 69.2907C128.706 68.2644 128.456 67.1271 128.456 65.8511V65.2964C128.456 63.9927 128.706 62.7999 129.233 61.7459C129.732 60.6918 130.454 59.8597 131.369 59.2494C132.284 58.6392 133.255 58.3341 134.337 58.3341C136.001 58.3341 137.305 58.8888 138.304 60.0261C139.302 61.1634 139.774 62.7167 139.774 64.6861V65.546H130.01V65.8234C130.01 67.3768 130.454 68.6805 131.341 69.7068C132.229 70.7331 133.338 71.2601 134.698 71.2601C135.502 71.2601 136.223 71.1214 136.833 70.8163C137.444 70.5112 138.026 70.0396 138.525 69.4017L139.469 70.1229C138.331 71.7317 136.695 72.5361 134.587 72.5361ZM134.309 59.6378C133.172 59.6378 132.201 60.0538 131.424 60.886C130.648 61.7181 130.176 62.8554 130.01 64.2423H138.22V64.0759C138.165 62.7722 137.804 61.6904 137.083 60.8582C136.39 60.0538 135.446 59.6378 134.309 59.6378Z" fill="#0560FA"/>
<path d="M146.986 64.1591L150.675 58.6114H152.478L147.846 65.3241L152.7 72.2864H150.897L146.986 66.4891L143.075 72.2864H141.299L146.126 65.3241L141.493 58.6114H143.269L146.986 64.1591Z" fill="#0560FA"/>
<path d="M166.291 65.5737C166.291 67.7095 165.82 69.4016 164.877 70.6498C163.934 71.898 162.658 72.536 161.077 72.536C159.19 72.536 157.776 71.8703 156.777 70.5666V77.5566H155.279V58.5836H156.694L156.777 60.5253C157.776 59.0552 159.19 58.334 161.077 58.334C162.713 58.334 163.989 58.9442 164.932 60.1924C165.875 61.4407 166.319 63.1604 166.319 65.3518V65.5737H166.291ZM164.766 65.324C164.766 63.5765 164.405 62.1896 163.684 61.191C162.963 60.1647 161.964 59.6654 160.688 59.6654C159.773 59.6654 158.969 59.8873 158.303 60.3311C157.637 60.7749 157.138 61.4407 156.777 62.2728V68.8468C157.138 69.6235 157.665 70.2337 158.331 70.6498C158.996 71.0659 159.801 71.26 160.716 71.26C161.992 71.26 162.991 70.7607 163.684 69.7344C164.433 68.7358 164.766 67.238 164.766 65.324Z" fill="#0560FA"/>
<path d="M175.972 59.8873C175.639 59.8318 175.306 59.8041 174.946 59.8041C174.003 59.8041 173.198 60.0815 172.56 60.6085C171.922 61.1355 171.451 61.9122 171.173 62.9108V72.3141H169.676V58.6113H171.146L171.173 60.7749C171.978 59.1661 173.254 58.334 175.029 58.334C175.445 58.334 175.778 58.3894 176.028 58.5004L175.972 59.8873Z" fill="#0560FA"/>
<path d="M183.434 72.536C182.269 72.536 181.215 72.2586 180.272 71.6761C179.329 71.0936 178.607 70.2892 178.08 69.2906C177.553 68.2643 177.304 67.127 177.304 65.8511V65.2963C177.304 63.9926 177.553 62.7998 178.08 61.7458C178.58 60.6917 179.301 59.8596 180.216 59.2493C181.132 58.6391 182.102 58.334 183.184 58.334C184.848 58.334 186.152 58.8887 187.151 60.026C188.149 61.1633 188.621 62.7166 188.621 64.686V65.5459H178.857V65.8233C178.857 67.3767 179.301 68.6804 180.188 69.7067C181.076 70.733 182.186 71.26 183.545 71.26C184.349 71.26 185.07 71.1213 185.681 70.8162C186.291 70.5111 186.873 70.0395 187.373 69.4016L188.316 70.1228C187.179 71.7316 185.542 72.536 183.434 72.536ZM183.156 59.6377C182.019 59.6377 181.048 60.0537 180.272 60.8859C179.495 61.718 179.023 62.8553 178.857 64.2422H187.068V64.0758C187.012 62.7721 186.651 61.6903 185.93 60.8582C185.237 60.0537 184.294 59.6377 183.156 59.6377Z" fill="#0560FA"/>
<path d="M199.716 68.8191C199.716 68.0701 199.411 67.4599 198.801 67.0161C198.191 66.5723 197.275 66.2117 196.083 65.9343C194.862 65.6846 193.919 65.3795 193.253 65.0466C192.588 64.7138 192.088 64.2977 191.755 63.8262C191.422 63.3546 191.256 62.7721 191.256 62.0786C191.256 60.9968 191.7 60.1092 192.615 59.388C193.531 58.6946 194.668 58.334 196.083 58.334C197.608 58.334 198.829 58.7223 199.772 59.4712C200.715 60.2202 201.159 61.2188 201.159 62.4392H199.633C199.633 61.6348 199.3 60.9691 198.634 60.4421C197.969 59.915 197.109 59.6377 196.11 59.6377C195.112 59.6377 194.307 59.8596 193.725 60.3034C193.115 60.7472 192.809 61.3297 192.809 62.0232C192.809 62.7166 193.059 63.2437 193.558 63.6043C194.058 63.9926 194.973 64.3254 196.304 64.6306C197.636 64.9357 198.634 65.2686 199.3 65.6292C199.966 65.9898 200.465 66.4058 200.77 66.9051C201.103 67.4044 201.242 68.0146 201.242 68.7081C201.242 69.8731 200.77 70.7885 199.855 71.4819C198.912 72.1754 197.691 72.5083 196.193 72.5083C194.585 72.5083 193.309 72.1199 192.31 71.3433C191.312 70.5666 190.812 69.5957 190.812 68.403H192.338C192.393 69.2906 192.782 69.9841 193.447 70.4834C194.141 70.9827 195.056 71.2323 196.166 71.2323C197.22 71.2323 198.08 71.0104 198.718 70.5388C199.411 70.095 199.716 69.5125 199.716 68.8191Z" fill="#0560FA"/>
<path d="M212.864 68.8191C212.864 68.0701 212.559 67.4599 211.949 67.0161C211.339 66.5723 210.423 66.2117 209.23 65.9343C208.01 65.6846 207.067 65.3795 206.401 65.0466C205.735 64.7138 205.236 64.2977 204.903 63.8262C204.57 63.3546 204.404 62.7721 204.404 62.0786C204.404 60.9968 204.848 60.1092 205.763 59.388C206.679 58.6946 207.816 58.334 209.23 58.334C210.756 58.334 211.977 58.7223 212.92 59.4712C213.863 60.2202 214.307 61.2188 214.307 62.4392H212.781C212.781 61.6348 212.448 60.9691 211.782 60.4421C211.117 59.915 210.257 59.6377 209.258 59.6377C208.26 59.6377 207.455 59.8596 206.873 60.3034C206.262 60.7472 205.957 61.3297 205.957 62.0232C205.957 62.7166 206.207 63.2437 206.706 63.6043C207.206 63.9926 208.121 64.3254 209.452 64.6306C210.784 64.9357 211.782 65.2686 212.448 65.6292C213.114 65.9898 213.613 66.4058 213.918 66.9051C214.251 67.4044 214.39 68.0146 214.39 68.7081C214.39 69.8731 213.918 70.7885 213.003 71.4819C212.06 72.1754 210.839 72.5083 209.341 72.5083C207.733 72.5083 206.457 72.1199 205.458 71.3433C204.46 70.5666 203.96 69.5957 203.96 68.403H205.486C205.541 69.2906 205.93 69.9841 206.595 70.4834C207.289 70.9827 208.204 71.2323 209.314 71.2323C210.368 71.2323 211.228 71.0104 211.866 70.5388C212.531 70.095 212.864 69.5125 212.864 68.8191Z" fill="#0560FA"/>
<path d="M62.6887 29.1257V43.6052L50.151 36.3655L40.9696 31.0674L37.6132 29.1257L25.0755 21.886L19.2504 18.5297L12.5377 14.6463L0 7.40661L2.46871 5.99195L12.5377 0.166897L22.6068 5.99195L25.0755 7.40661L37.6132 14.6463L44.3259 18.5297L50.151 21.886L62.6887 29.1257Z" fill="#0560FA"/>
<path d="M62.6887 43.605L50.1509 50.817L40.9695 56.115L37.6132 58.0567L34.2568 56.115L25.0754 50.817L37.6132 43.605V43.5773L62.6887 29.1256V43.605Z" fill="#0045AA"/>
<path d="M25.0755 36.3655L12.5377 43.5775V72.5363L5.82506 68.653L0 65.2966V21.8861L12.5377 29.1258L15.8941 31.0675L25.0755 36.3655Z" fill="#EC8000"/>
<path d="M25.0755 65.2967L19.2504 68.653L12.5377 72.5364V58.057L25.0755 65.2967Z" fill="#B75F00"/>
</svg>
